<svg xmlns="http://www.w3.org/2000/svg" width="818.553" height="686.948"><rect width="578.555" height="591.621" x="104.526" y="93.874" fill="#fff" rx="17.389" ry="17.389"/><path fill="#090814" d="M657.836 686.948H129.77c-14.721 0-26.697-11.977-26.697-26.698V119.12c0-14.721 11.976-26.697 26.697-26.697h528.065c14.72 0 26.696 11.976 26.696 26.697v541.13c0 14.721-11.976 26.698-26.696 26.698M129.77 95.326c-13.12 0-23.794 10.674-23.794 23.794v541.13c0 13.12 10.673 23.794 23.794 23.794h528.065c13.119 0 23.792-10.673 23.792-23.794V119.12c0-13.12-10.673-23.794-23.792-23.794z"/><path fill="#090814" d="M605.985 368.997H191.058c-10.889 0-19.748-8.86-19.748-19.749v-65.036c0-10.889 8.86-19.747 19.748-19.747h414.927c10.89 0 19.748 8.858 19.748 19.747v65.036c0 10.889-8.859 19.749-19.748 19.749M191.058 267.368c-9.288 0-16.845 7.556-16.845 16.844v65.036c0 9.288 7.557 16.845 16.845 16.845h414.927c9.288 0 16.844-7.557 16.844-16.845v-65.036c0-9.288-7.556-16.844-16.844-16.844zM605.985 495.306H191.058c-10.889 0-19.748-8.86-19.748-19.749v-65.036c0-10.888 8.86-19.747 19.748-19.747h414.927c10.89 0 19.748 8.859 19.748 19.747v65.036c0 10.889-8.859 19.749-19.748 19.749M191.058 393.678c-9.288 0-16.845 7.555-16.845 16.843v65.036c0 9.288 7.557 16.845 16.845 16.845h414.927c9.288 0 16.844-7.557 16.844-16.845v-65.036c0-9.288-7.556-16.843-16.844-16.843z"/><circle cx="295.442" cy="443.765" r="10.163" fill="#8b0000"/><circle cx="329.56" cy="444.491" r="10.163" fill="#8b0000"/><circle cx="364.404" cy="443.039" r="10.163" fill="#8b0000"/><circle cx="399.248" cy="443.039" r="10.163" fill="#8b0000"/><circle cx="434.092" cy="443.039" r="10.163" fill="#8b0000"/><circle cx="468.936" cy="443.039" r="10.163" fill="#8b0000"/><path fill="#8b0000" d="M489.988 630.326h-197.45c-26.019 0-47.185-21.166-47.185-47.184s21.166-47.185 47.184-47.185h197.45c26.018 0 47.184 21.167 47.184 47.185s-21.166 47.184-47.183 47.184"/><path fill="#d6d6e3" d="M35.79 145.852c-6.168 0-11.591-4.42-12.777-10.535L.24 17.852A12.98 12.98 0 0 1 2.888 7.206a12.98 12.98 0 0 1 9.845-4.836L122.786.003c6.426-.146 11.874 4.315 13.062 10.586l21.584 113.915a13.008 13.008 0 0 1-12.076 15.411l-108.864 5.917q-.353.019-.703.02"/><path fill="#8b0000" d="m28.667 126.814 23.955-64.606 39.926 29.763 13.066-13.067 45.733 47.185zM102.71 56.4c-6.004 0-10.888-4.883-10.888-10.888s4.884-10.889 10.889-10.889 10.889 4.885 10.889 10.89S108.715 56.4 102.71 56.4"/><path fill="#d6d6e3" d="M39.864 589.556c-3.431 0-6.787-1.004-9.723-2.946a17.56 17.56 0 0 1-7.618-11.45L.528 459.552a17.63 17.63 0 0 1 13.477-20.567l98.531-22.319a17.58 17.58 0 0 1 13.492 2.38 17.56 17.56 0 0 1 7.75 11.3l23.973 116.139c1.954 9.463-4.14 18.827-13.582 20.874L43.656 589.146a18 18 0 0 1-3.792.41"/><path fill="#090814" d="M32.291 485.418a5.083 5.083 0 0 1-.927-10.077l79.658-14.882c2.758-.523 5.412 1.303 5.928 4.062s-1.303 5.413-4.062 5.928L33.23 485.33q-.474.089-.939.088M39.552 515.907a5.083 5.083 0 0 1-1.173-10.027l74.985-17.854a5.087 5.087 0 0 1 6.12 3.767 5.083 5.083 0 0 1-3.766 6.12l-74.985 17.855a5 5 0 0 1-1.181.139M44.632 545.406a5.082 5.082 0 0 1-1.048-10.054l51.157-10.834a5.075 5.075 0 0 1 6.025 3.918 5.08 5.08 0 0 1-3.918 6.024l-51.157 10.834q-.535.112-1.06.112"/><path fill="#d6d6e3" d="M781.3 233.887q-1.356.001-2.734-.214l-101.602-15.94a17.56 17.56 0 0 1-11.691-7.245 17.56 17.56 0 0 1-2.975-13.427l21.196-115.756c1.73-9.429 10.502-15.704 19.99-14.322l99.948 14.733a17.56 17.56 0 0 1 11.724 7.09 17.56 17.56 0 0 1 3.15 13.333l-19.542 116.966c-1.437 8.615-8.978 14.782-17.464 14.782"/><path fill="#090814" d="M785.294 132.092q-.465 0-.937-.088l-79.664-14.86a5.08 5.08 0 0 1-4.063-5.927c.513-2.759 3.16-4.589 5.926-4.063l79.664 14.86a5.083 5.083 0 0 1-.926 10.078M777.78 158.685q-.344.001-.694-.046l-76.377-10.401a5.08 5.08 0 1 1 1.373-10.07l76.377 10.401a5.08 5.08 0 0 1-.68 10.116M747.118 185.985q-.405 0-.818-.066l-51.62-8.354a5.08 5.08 0 0 1-4.205-5.829 5.08 5.08 0 0 1 5.83-4.203l51.62 8.353a5.082 5.082 0 0 1-.807 10.1"/></svg>